<svg width="1037" height="265" viewBox="0 0 1037 265" fill="none" xmlns="http://www.w3.org/2000/svg">
<path d="M129.941 165.724L0 68.2803V263.168L129.941 165.724Z" fill="#003DD9"/>
<path d="M130.109 165.724L260.051 263.168V68.2803L130.109 165.724Z" fill="#003DD9"/>
<path d="M129.942 68.3536H259.859C260.308 59.5447 258.96 50.7366 255.899 42.4647C252.837 34.1928 248.125 26.6301 242.049 20.2364C235.972 13.8428 228.659 8.7517 220.554 5.27284C212.449 1.79397 203.721 0 194.9 0C186.08 0 177.352 1.79397 169.247 5.27284C161.141 8.7517 153.828 13.8428 147.752 20.2364C141.676 26.6301 136.964 34.1928 133.902 42.4647C130.84 50.7366 129.493 59.5447 129.942 68.3536Z" fill="#003DD9"/>
<path d="M0.0843185 68.3536H130.001C130.45 59.5447 129.103 50.7366 126.041 42.4647C122.979 34.1928 118.267 26.6301 112.191 20.2364C106.115 13.8428 98.802 8.7517 90.6967 5.27284C82.5914 1.79397 73.8632 0 65.0429 0C56.2226 0 47.4944 1.79397 39.3891 5.27284C31.2838 8.7517 23.9707 13.8428 17.8946 20.2364C11.8185 26.6301 7.1063 34.1928 4.04452 42.4647C0.982733 50.7366 -0.364645 59.5447 0.0843185 68.3536V68.3536Z" fill="#003DD9"/>
<path d="M468.589 42.0694C474.852 48.2605 477.984 57.5833 477.984 69.9656V118.627H458.11V72.5191C458.11 65.0994 456.448 59.5105 453.292 55.6561C451.49 53.7379 449.284 52.2438 446.835 51.2814C444.385 50.3191 441.753 49.9126 439.127 50.0913C436.131 49.9662 433.143 50.4914 430.369 51.6308C427.596 52.7702 425.102 54.4969 423.059 56.692C419.044 61.0924 417.028 67.3719 417.012 75.5303V118.627H397.138V72.5191C397.138 65.0994 395.532 59.4784 392.32 55.6561C390.524 53.7246 388.322 52.2152 385.873 51.2363C383.423 50.2574 380.788 49.8335 378.155 49.995C375.153 49.8565 372.157 50.3682 369.371 51.4949C366.586 52.6217 364.076 54.337 362.015 56.5234C358.048 60.8596 356.065 67.1631 356.065 75.434V118.627H336.19V33.7343H354.812V44.5266C358.06 40.6797 362.193 37.6789 366.857 35.7819C371.902 33.725 377.308 32.7011 382.756 32.7707C388.574 32.6768 394.338 33.8954 399.619 36.336C404.455 38.6558 408.514 42.3296 411.303 46.9115C414.899 42.3995 419.536 38.8282 424.817 36.5046C430.576 33.9687 436.81 32.6955 443.102 32.7707C453.862 32.7707 462.358 35.8702 468.589 42.0694Z" fill="#020926"/>
<path d="M564.541 41.8537C571.174 47.8441 574.491 56.8778 574.491 68.9549V118.628H555.725V108.294C553.179 112.101 549.556 115.062 545.318 116.798C540.138 118.878 534.589 119.879 529.009 119.737C523.279 119.877 517.586 118.784 512.314 116.533C507.852 114.61 504.02 111.472 501.257 107.475C498.67 103.589 497.318 99.013 497.379 94.3457C497.257 90.8335 497.963 87.3418 499.441 84.153C500.918 80.9641 503.125 78.1675 505.882 75.9892C511.552 71.38 520.481 69.0754 532.67 69.0754H554.616V67.7986C554.775 65.2681 554.382 62.7334 553.462 60.3704C552.543 58.0075 551.12 55.8731 549.293 54.1155C545.727 50.9035 540.452 49.2975 533.465 49.2975C528.687 49.2983 523.939 50.0544 519.397 51.5379C515.136 52.8209 511.167 54.924 507.713 57.729L499.908 43.275C504.731 39.6945 510.18 37.0473 515.976 35.4699C522.441 33.6396 529.132 32.7313 535.85 32.7718C548.361 32.7718 557.925 35.7991 564.541 41.8537ZM546.426 101.958C550.217 99.7577 553.116 96.2963 554.616 92.1776V82.2285H534.092C522.657 82.2285 516.94 85.9865 516.94 93.5026C516.892 95.1748 517.258 96.833 518.006 98.3293C518.754 99.8257 519.861 101.114 521.228 102.079C524.736 104.382 528.889 105.504 533.08 105.283C537.756 105.373 542.37 104.191 546.426 101.862V101.958Z" fill="#020926"/>
<path d="M615.974 114.124C609.173 110.602 603.504 105.233 599.617 98.6337C595.637 91.8112 593.596 84.0312 593.715 76.1337C593.585 68.2575 595.627 60.4978 599.617 53.7059C603.505 47.1516 609.145 41.8122 615.902 38.2883C623.24 34.4829 631.413 32.5701 639.678 32.7236C647.327 32.551 654.897 34.2986 661.697 37.8065C667.868 41.0541 672.852 46.1732 675.934 52.4291L660.757 61.3906C658.55 57.6852 655.389 54.6402 651.603 52.5737C647.902 50.5896 643.757 49.5783 639.558 49.6347C636.153 49.5296 632.763 50.1158 629.591 51.358C626.42 52.6001 623.533 54.4724 621.105 56.8617C618.652 59.4128 616.746 62.438 615.503 65.7519C614.26 69.0658 613.707 72.5985 613.878 76.1337C613.716 79.6679 614.273 83.1983 615.515 86.511C616.757 89.8236 618.659 92.8496 621.105 95.4056C625.134 99.173 630.226 101.606 635.688 102.374C641.15 103.141 646.716 102.205 651.627 99.6936C655.408 97.6205 658.568 94.577 660.781 90.8767L676.054 99.7659C672.849 106.031 667.806 111.166 661.6 114.485C654.872 118.028 647.353 119.802 639.751 119.64C631.49 119.801 623.319 117.906 615.974 114.124Z" fill="#020926"/>
<path d="M754.226 41.854C760.858 47.8443 764.167 56.8781 764.151 68.9552V118.629H745.409V108.294C742.848 112.097 739.219 115.056 734.978 116.798C729.807 118.879 724.265 119.88 718.693 119.737C712.963 119.877 707.27 118.784 701.999 116.533C697.536 114.611 693.704 111.472 690.941 107.475C688.338 103.596 686.976 99.017 687.039 94.346C686.922 90.8319 687.633 87.3396 689.114 84.151C690.596 80.9623 692.806 78.1666 695.567 75.9894C701.236 71.3802 710.165 69.0756 722.355 69.0756H744.277V67.7988C744.44 65.2679 744.049 62.7317 743.129 60.368C742.209 58.0043 740.784 55.8704 738.953 54.1157C735.419 50.9037 730.152 49.2978 723.15 49.2978C718.371 49.2985 713.623 50.0546 709.081 51.5381C704.813 52.8212 700.836 54.9241 697.373 57.7292L689.592 43.2753C694.415 39.6947 699.865 37.0475 705.66 35.4701C712.124 33.6364 718.816 32.728 725.535 32.772C738.029 32.772 747.593 35.7993 754.226 41.854ZM736.086 101.958C739.884 99.7659 742.785 96.3018 744.277 92.1779V82.2287H723.776C712.341 82.2287 706.616 85.9868 706.6 93.5028C706.556 95.1744 706.924 96.8311 707.672 98.3267C708.42 99.8223 709.524 101.111 710.888 102.079C714.42 104.388 718.6 105.503 722.812 105.259C727.462 105.346 732.049 104.172 736.086 101.862V101.958Z" fill="#020926"/>
<path d="M920.445 33.7354L889.128 118.628H870.049L848.103 60.1139L825.844 118.628H806.765L775.616 33.7354H794.358L816.786 96.3692L840.153 33.7354H856.848L879.757 96.6824L902.811 33.7354H920.445Z" fill="#020926"/>
<path d="M405.235 182.708C411.689 186.248 417.01 191.543 420.58 197.981C424.39 204.945 426.308 212.786 426.145 220.722C426.298 228.68 424.381 236.542 420.58 243.535C417.026 250.004 411.703 255.327 405.235 258.881C398.423 262.551 390.784 264.409 383.048 264.277C377.577 264.341 372.148 263.318 367.076 261.266C362.334 259.299 358.154 256.187 354.911 252.208V263.169H336V145.128H355.874V188.49C359.213 184.82 363.328 181.94 367.919 180.058C372.74 178.114 377.898 177.139 383.096 177.192C390.826 177.105 398.449 179.004 405.235 182.708ZM398.875 239.946C401.278 237.366 403.142 234.333 404.358 231.024C405.575 227.715 406.118 224.196 405.957 220.674C406.118 217.152 405.575 213.633 404.358 210.324C403.142 207.015 401.278 203.982 398.875 201.402C396.534 199.01 393.721 197.132 390.614 195.888C387.508 194.644 384.176 194.06 380.831 194.175C376.324 194.109 371.879 195.231 367.943 197.427C364.118 199.624 360.981 202.844 358.885 206.726C356.7 211.068 355.561 215.861 355.561 220.722C355.561 225.583 356.7 230.377 358.885 234.718C360.981 238.6 364.118 241.821 367.943 244.017C371.879 246.214 376.324 247.335 380.831 247.269C384.183 247.372 387.519 246.773 390.626 245.512C393.733 244.251 396.543 242.355 398.875 239.946Z" fill="#020926"/>
<path d="M527.274 178.275V263.168H508.339V252.352C505.128 256.203 501.038 259.227 496.415 261.169C491.546 263.261 486.296 264.32 480.997 264.277C469.659 264.277 460.73 261.129 454.209 254.833C447.689 248.538 444.429 239.183 444.429 226.768V178.275H464.303V224.046C464.303 231.675 466.021 237.376 469.458 241.15C471.365 243.089 473.666 244.596 476.205 245.569C478.744 246.541 481.463 246.957 484.177 246.787C487.294 246.932 490.406 246.419 493.311 245.281C496.216 244.144 498.85 242.408 501.04 240.187C505.232 235.802 507.328 229.475 507.328 221.204V178.275H527.274Z" fill="#020926"/>
<path d="M559.385 261.578C553.782 260.212 548.453 257.898 543.63 254.736L551.266 239.632C555.505 242.375 560.146 244.439 565.022 245.75C570.158 247.295 575.486 248.106 580.849 248.159C592.701 248.159 598.651 245.028 598.651 238.788C598.691 237.397 598.267 236.032 597.448 234.908C596.628 233.783 595.459 232.962 594.122 232.573C589.418 231.018 584.579 229.906 579.668 229.249C573.885 228.448 568.169 227.224 562.565 225.587C558.183 224.221 554.238 221.729 551.122 218.36C547.699 214.351 545.971 209.167 546.304 203.906C546.235 200.105 547.124 196.348 548.888 192.98C550.652 189.613 553.234 186.742 556.398 184.634C563.127 179.816 572.217 177.407 583.667 177.407C589.552 177.421 595.417 178.084 601.157 179.383C606.175 180.411 611.003 182.215 615.466 184.731L607.757 199.739C600.374 195.451 591.963 193.253 583.426 193.379C578.832 193.107 574.245 194.02 570.105 196.029C568.778 196.642 567.651 197.615 566.85 198.837C566.049 200.059 565.608 201.482 565.576 202.943C565.538 204.437 565.988 205.904 566.857 207.121C567.726 208.338 568.968 209.239 570.394 209.688C575.266 211.434 580.303 212.685 585.426 213.422C591.073 214.23 596.653 215.454 602.12 217.083C606.394 218.407 610.253 220.814 613.322 224.069C616.704 227.921 618.435 232.949 618.14 238.066C618.2 241.866 617.281 245.617 615.471 248.958C613.661 252.3 611.021 255.119 607.806 257.145C600.916 261.963 591.537 264.372 579.668 264.372C572.812 264.364 565.988 263.424 559.385 261.578Z" fill="#020926"/>
<path d="M636.184 160.859C635.028 159.765 634.107 158.446 633.477 156.984C632.848 155.522 632.523 153.947 632.523 152.355C632.523 150.763 632.848 149.188 633.477 147.726C634.107 146.264 635.028 144.946 636.184 143.851C638.633 141.559 641.889 140.33 645.242 140.431C648.564 140.332 651.8 141.493 654.3 143.683C655.476 144.694 656.414 145.953 657.047 147.368C657.68 148.784 657.992 150.323 657.961 151.873C657.993 153.51 657.692 155.136 657.075 156.652C656.458 158.167 655.538 159.542 654.372 160.69C653.176 161.88 651.749 162.812 650.178 163.43C648.608 164.047 646.928 164.336 645.242 164.28C641.889 164.381 638.633 163.151 636.184 160.859ZM635.22 178.276H655.095V263.169H635.22V178.276Z" fill="#020926"/>
<path d="M755.093 186.682C761.517 192.946 764.729 202.22 764.729 214.506V263.168H744.855V217.06C744.855 209.64 743.104 204.019 739.603 200.197C737.658 198.248 735.32 196.735 732.745 195.759C730.169 194.783 727.416 194.366 724.668 194.536C721.477 194.371 718.286 194.873 715.3 196.009C712.314 197.146 709.597 198.892 707.323 201.136C703.083 205.553 700.963 211.888 700.963 220.143V263.072H681.089V178.275H700.024V189.236C703.352 185.278 707.617 182.214 712.43 180.323C717.804 178.242 723.53 177.219 729.293 177.311C740.021 177.311 748.621 180.435 755.093 186.682Z" fill="#020926"/>
<path d="M870.338 227.081H803.753C804.74 233.037 808.017 238.371 812.884 241.944C818.244 245.738 824.701 247.668 831.264 247.437C835.536 247.572 839.789 246.822 843.756 245.234C847.724 243.647 851.32 241.255 854.318 238.21L864.966 250.448C861.083 255.042 856.115 258.594 850.512 260.783C843.353 263.403 835.744 264.57 828.129 264.214C820.514 263.858 813.046 261.987 806.162 258.711C799.3 255.24 793.587 249.861 789.709 243.221C785.78 236.382 783.774 228.607 783.903 220.721C783.789 212.93 785.724 205.245 789.516 198.438C793.183 191.904 798.607 186.529 805.175 182.924C812.095 179.157 819.869 177.24 827.747 177.359C835.495 177.227 843.143 179.12 849.934 182.852C856.386 186.436 861.684 191.784 865.207 198.269C868.969 205.335 870.852 213.248 870.675 221.251C870.675 222.528 870.579 224.527 870.338 227.081ZM811.631 198.847C807.185 202.692 804.319 208.047 803.585 213.879H851.765C851.113 208.108 848.34 202.785 843.984 198.944C839.396 195.262 833.69 193.256 827.807 193.256C821.925 193.256 816.219 195.262 811.631 198.944V198.847Z" fill="#020926"/>
<path d="M895.802 261.579C890.207 260.211 884.887 257.897 880.071 254.738L887.708 239.633C891.937 242.379 896.57 244.443 901.439 245.752C906.576 247.293 911.904 248.104 917.266 248.161C929.135 248.161 935.069 245.037 935.069 238.79C935.136 237.385 934.728 235.998 933.91 234.853C933.093 233.708 931.914 232.872 930.564 232.478C925.861 230.918 921.022 229.805 916.11 229.154C910.334 228.356 904.625 227.132 899.03 225.492C894.647 224.132 890.699 221.639 887.587 218.265C884.155 214.262 882.426 209.074 882.769 203.811C882.701 200.01 883.589 196.253 885.353 192.885C887.117 189.518 889.7 186.648 892.863 184.539C899.608 179.721 908.698 177.312 920.133 177.312C926.018 177.327 931.883 177.989 937.622 179.288C942.641 180.316 947.469 182.12 951.932 184.636L944.319 199.74C936.934 195.456 928.525 193.258 919.988 193.38C915.33 193.072 910.671 193.985 906.474 196.03C905.146 196.641 904.017 197.613 903.216 198.836C902.415 200.059 901.974 201.483 901.945 202.944C901.907 204.439 902.357 205.906 903.226 207.122C904.095 208.339 905.337 209.24 906.763 209.689C911.634 211.441 916.671 212.692 921.795 213.423C927.441 214.237 933.021 215.461 938.489 217.085C942.758 218.42 946.615 220.825 949.691 224.071C953.03 227.941 954.716 232.967 954.389 238.067C954.449 241.867 953.529 245.618 951.719 248.96C949.909 252.301 947.27 255.121 944.054 257.147C937.132 261.965 927.745 264.374 915.893 264.374C909.101 264.346 902.344 263.406 895.802 261.579Z" fill="#020926"/>
<path d="M977.684 261.579C972.087 260.217 966.766 257.903 961.953 254.738L969.566 239.633C973.804 242.376 978.445 244.441 983.321 245.752C988.457 247.295 993.785 248.106 999.148 248.161C1011.02 248.161 1016.95 245.037 1016.95 238.79C1017.02 237.388 1016.61 236.004 1015.8 234.859C1014.99 233.715 1013.82 232.876 1012.47 232.478C1007.77 230.918 1002.93 229.805 998.016 229.154C992.24 228.356 986.531 227.132 980.936 225.492C976.552 224.132 972.605 221.639 969.493 218.265C966.061 214.262 964.332 209.074 964.675 203.811C964.607 200.01 965.495 196.253 967.259 192.885C969.023 189.518 971.605 186.648 974.769 184.539C981.514 179.721 990.604 177.312 1002.04 177.312C1007.92 177.327 1013.79 177.989 1019.53 179.288C1024.55 180.316 1029.37 182.12 1033.84 184.636L1026.23 199.74C1018.84 195.456 1010.43 193.258 1001.89 193.38C997.236 193.072 992.577 193.985 988.38 196.03C987.052 196.641 985.922 197.613 985.121 198.836C984.32 200.059 983.88 201.483 983.851 202.944C983.813 204.439 984.263 205.906 985.132 207.122C986.001 208.339 987.243 209.24 988.669 209.689C993.54 211.441 998.576 212.692 1003.7 213.423C1009.34 214.234 1014.91 215.458 1020.37 217.085C1024.65 218.414 1028.52 220.82 1031.6 224.071C1034.94 227.941 1036.62 232.967 1036.29 238.067C1036.35 241.866 1035.43 245.616 1033.62 248.957C1031.81 252.297 1029.17 255.117 1025.96 257.147C1019.04 261.965 1009.65 264.374 997.799 264.374C990.999 264.348 984.233 263.409 977.684 261.579Z" fill="#020926"/>
</svg>
